REM DIRINDEX 1\2,1\3
REM DIRNAME cjc052,folder01,folder02
TITLE ""
FILE "Disk2Track16.mp3" MP3
  TRACK 01 AUDIO
    TITLE "2:cjc052_0643"
    INDEX 01 00:00:00
  TRACK 02 AUDIO
    TITLE "2:cjc052_0644"
    INDEX 01 00:09:42
  TRACK 03 AUDIO
    TITLE "2:cjc052_0645"
    INDEX 01 00:21:68
  TRACK 04 AUDIO
    TITLE "2:cjc052_0646"
    INDEX 01 00:36:25
  TRACK 05 AUDIO
    TITLE "2:cjc052_0647"
    INDEX 01 00:45:32
  TRACK 06 AUDIO
    TITLE "0:"
    INDEX 01 00:58:28
